<svg xmlns="http://www.w3.org/2000/svg" width="1000" height="367" viewBox="0 0 1000 367">
  <defs>
    <style>
      .cls-1 {
        fill: #fff;
        fill-rule: evenodd;
      }
    </style>
  </defs>
  <path id="모양_1" data-name="모양 1" class="cls-1" d="M904.212,105.705v21.518h11.012c5.254,0,6.3,1.194,6.448,2.985,0.1,1.234-5.485,7.479-7.612,9.951l-8.455,10.149-11.343,13.034-6.369,7.563c-4.529,5.672-4.428,2.985-10.249-3.483l-5.669-6.765L858.44,144.189c-1.7-2.059-11.691-12.351-11.691-14.826,0-2.884,1.761-2.09,9.408-2.09h7.649V105.705H756.291v21.219h0c26.778,0,27.331-1.012,36.68,9.7l14.776,17.015,43.879,50.148v31.717c-0.747,6.317-6.492,6.79-18.414,6.343H823.019v19.1H928.19v-19.4H914.8l-5.941.075c-8.657-.149-10.205-0.715-10.205-8.961h0V201.338l32.517-36.4L946.2,148.516c17.849-22.257,18.693-21.293,31.442-21.293h14.927V105.705H904.212ZM48.67,139.014c0.746-12.09,23.872-18.657,51.192-18.657,21.206,0,49.219,6.4,61.64,15.224,5.671,4.03,10.745,7.91,14.477,22.388h19.1V105.531H173.516l0.037,1.132c0.336,8.321-2.61,8.191-11.305,3.172-13.059-7.537-39.342-13.677-62.995-13.457-53.518.5-92.821,16.119-92.821,53.233,0,34.229,28.876,45.361,68.654,51.144l45.472,4.776c32.038,3.881,44.476,7.425,44.476,19.9,0,12.046-24.678,22.587-53.731,21.99-20.891-.429-52.635-9.055-60.694-15.721-6.952-5.75-17.313-11.344-15.82-27.96H11.009v62.089H35.187c0-9.751-.427-14.744,6.268-11.343,18.408,9.353,48.854,16.168,71.441,16.019,56.715-.375,92.72-18.409,93.2-53.785,1.079-80.393-154.736-44.423-157.571-73.378Zm597.362-11.99h19.257c11.194-.323,12.962,3.01,12.763,12.363v61.666L572.83,105.5H495.971v21.573H511.06c12.229,0,16.305,3.691,16.305,11.94v93.45h0c0,8.247-4.076,9.235-16.305,9.235h-13v20.747H588.65V242H574.264c-12.231,0-16.721-1.287-16.721-9.534h0V152.906l121.1,109.649,30.183,0.413V136.421h0c0-8.249,4.074-9.6,16.312-9.6h11.821V105.5H646.032v21.523h0Zm-287.3-30.758c-71.5,0-116.488,33.984-116.488,87.758,0,53.343,44.184,86.9,114.078,86.9,74.313,0,117.292-32.695,117.292-89.049,0-50.762-46.6-85.608-114.882-85.608h0Zm-5.149,152.448c-36.416-4.179-62.386-26.865-62.386-65.552,0-36.239,23.88-62.506,67.535-63.7,33.392-.913,67.386,28.656,65.893,65.421-1.524,37.537-26,63.533-66.564,63.533Z"/>
</svg>
